<svg width="219" height="40" viewBox="0 0 219 40" fill="none" xmlns="http://www.w3.org/2000/svg">
<path d="M33.76 7.44C33.84 8.61333 33.6933 9.73333 33.32 10.8C32.9467 11.8667 32.3867 12.8133 31.64 13.64C30.92 14.4667 30.0933 15.24 29.16 15.96C28.2267 16.68 27.16 17.32 25.96 17.88C24.76 18.4133 23.5867 18.9067 22.44 19.36C21.32 19.7867 20.1067 20.16 18.8 20.48C17.52 20.8 16.3867 21.0667 15.4 21.28C14.4133 21.4933 13.4133 21.68 12.4 21.84C13.4667 22.4267 14.48 23.0533 15.44 23.72C16.4267 24.36 17.5067 25.2133 18.68 26.28C19.8533 27.3467 20.8533 28.4667 21.68 29.64C22.5333 30.8133 23.2533 32.2133 23.84 33.84C24.4267 35.44 24.7333 37.0933 24.76 38.8C24.76 39.0933 24.6533 39.3467 24.44 39.56C24.2267 39.7733 23.9733 39.88 23.68 39.88C23.3867 39.88 23.1333 39.7733 22.92 39.56C22.7333 39.3733 22.64 39.1333 22.64 38.84C22.6133 37.32 22.32 35.84 21.76 34.4C21.2267 32.96 20.56 31.72 19.76 30.68C18.9867 29.6133 18.0533 28.6 16.96 27.64C15.8667 26.6533 14.8667 25.8667 13.96 25.28C13.08 24.6933 12.16 24.1467 11.2 23.64C9.84 26.12 8.62667 28.2533 7.56 30.04C6.52 31.8267 5.72 33.1733 5.16 34.08C4.6 34.96 4.10667 35.6533 3.68 36.16C3.25333 36.6667 2.97333 36.96 2.84 37.04C2.73333 37.1467 2.6 37.2267 2.44 37.28C2.33333 37.3333 2.21333 37.36 2.08 37.36C1.6 37.36 1.28 37.12 1.12 36.64C1.01333 36.4 1.01333 36.1467 1.12 35.88C1.22667 35.64 1.4 35.4667 1.64 35.36C2.52 34.6133 5.08 30.3867 9.32 22.68C8.84 22.4933 8.49333 22.36 8.28 22.28C7.74667 22.0933 7.52 21.72 7.6 21.16C7.62667 20.8933 7.72 20.68 7.88 20.52C8.06667 20.3333 8.29333 20.24 8.56 20.24C9.04 20.1867 9.78667 20.0933 10.8 19.96C13.2533 15.4267 15.1467 11.76 16.48 8.96C15.8133 9.09333 15.24 9 14.76 8.68L15.96 6.92C15.9333 6.89333 15.9067 6.88 15.88 6.88C15.96 6.90667 16.0667 6.90667 16.2 6.88C16.36 6.85333 16.5867 6.74666 16.88 6.56C17.1733 6.34667 17.48 6.05333 17.8 5.68C18.2 5.22666 18.64 5.09333 19.12 5.28C19.6 5.46666 19.84 5.81333 19.84 6.32C19.8133 7.12 17.6667 11.52 13.4 19.52C14.7067 19.28 15.9733 19.0133 17.2 18.72C18.4533 18.4 19.8133 18 21.28 17.52C22.7733 17.04 24.12 16.48 25.32 15.84C26.52 15.2 27.6267 14.4933 28.64 13.72C29.6533 12.92 30.4267 12 30.96 10.96C31.4933 9.89333 31.72 8.76 31.64 7.56C31.56 6.17333 31 5.16 29.96 4.52C29 3.93333 27.64 3.64 25.88 3.64C24.12 3.61333 22.2933 3.78667 20.4 4.16C18.5333 4.53333 16.5467 5.04 14.44 5.68C12.3333 6.29333 10.4933 6.89333 8.92 7.48C7.37333 8.06667 5.98667 8.64 4.76 9.2C4.49333 9.30667 4.22667 9.30667 3.96 9.2C3.69333 9.09333 3.49333 8.90666 3.36 8.64C3.25333 8.37333 3.25333 8.10667 3.36 7.84C3.46667 7.57333 3.65333 7.37333 3.92 7.24C4.29333 7.08 4.76 6.88 5.32 6.64C5.88 6.4 6.89333 6.01333 8.36 5.48C9.85333 4.92 11.3067 4.41333 12.72 3.96C14.1333 3.50667 15.76 3.05333 17.6 2.6C19.4667 2.14667 21.1733 1.84 22.72 1.68C24.2933 1.49333 25.8267 1.48 27.32 1.64C28.84 1.77333 30.08 2.13333 31.04 2.72C32.72 3.73333 33.6267 5.30667 33.76 7.44ZM44.3338 25.12C44.6271 25.1467 44.8538 25.28 45.0138 25.52C45.2004 25.76 45.2671 26.0267 45.2138 26.32C45.1604 26.5867 45.0138 26.8133 44.7738 27C42.2671 28.84 39.9604 30.6533 37.8538 32.44C36.6271 33.5067 35.5604 34.04 34.6538 34.04C34.2538 34.04 33.8938 33.9333 33.5738 33.72C32.7204 33.2133 32.2671 32.1067 32.2138 30.4C31.0138 31.4933 29.9604 32.2267 29.0538 32.6C28.1204 33.0533 27.3071 33.2933 26.6137 33.32C25.9204 33.3467 25.4404 33.2667 25.1737 33.08C24.8804 32.8933 24.6537 32.6667 24.4937 32.4C23.9337 31.52 24.0404 30.3733 24.8137 28.96C25.5871 27.5467 26.8804 26.12 28.6938 24.68C31.0671 22.7867 33.0538 22.1333 34.6538 22.72C35.2671 22.9333 35.7604 23.2933 36.1338 23.8C36.5071 24.3067 36.7471 24.8 36.8538 25.28C36.9071 25.5733 36.8538 25.84 36.6938 26.08C36.5338 26.32 36.3071 26.48 36.0138 26.56C35.7471 26.6133 35.4804 26.56 35.2138 26.4C34.9738 26.24 34.8271 26.0133 34.7738 25.72C34.6404 25.1867 34.3604 24.84 33.9338 24.68C33.0804 24.3867 31.7738 24.9333 30.0138 26.32C29.0538 27.0933 28.2671 27.8533 27.6538 28.6C27.0404 29.3467 26.6537 29.9333 26.4937 30.36C26.3071 30.76 26.2271 31.0533 26.2537 31.24C26.6271 31.32 27.2538 31.1333 28.1338 30.68C28.1604 30.68 28.2004 30.6667 28.2538 30.64C29.5604 30.0533 31.0671 28.7733 32.7738 26.8C33.1471 26.4 33.5738 26.32 34.0538 26.56C34.5338 26.8 34.7204 27.1867 34.6138 27.72C34.4271 28.7067 34.3338 29.6133 34.3338 30.44C34.3604 31.2667 34.4671 31.76 34.6538 31.92C35.0271 31.8933 35.6138 31.5467 36.4138 30.88C36.4404 30.88 36.4671 30.8667 36.4938 30.84C38.7604 28.92 41.1071 27.0667 43.5338 25.28C43.7738 25.12 44.0404 25.0667 44.3338 25.12ZM67.8481 24.68C68.1148 24.8133 68.2881 25.0267 68.3681 25.32C68.4481 25.5867 68.4081 25.8533 68.2481 26.12C68.1148 26.36 67.9148 26.5333 67.6481 26.64C66.8748 26.8533 65.5948 27.4267 63.8081 28.36C62.8748 28.84 62.1681 29.2 61.6881 29.44C61.2081 29.6533 60.6348 29.8533 59.9681 30.04C59.3015 30.2267 58.7415 30.2933 58.2881 30.24C57.6748 30.1867 57.2081 29.96 56.8881 29.56C56.4615 29.0267 56.3148 28.0533 56.4481 26.64C56.5281 25.9733 56.5548 25.52 56.5281 25.28C56.3148 25.4667 55.9148 25.92 55.3281 26.64C54.1281 28.16 53.1015 29.1867 52.2481 29.72C51.4748 30.2533 50.7948 30.2933 50.2081 29.84C49.2215 29.0933 49.2615 26.84 50.3281 23.08C49.1281 24.52 47.1681 27.32 44.4481 31.48C43.7548 32.5733 43.2081 33.3467 42.8081 33.8C42.4348 34.2267 42.0481 34.44 41.6481 34.44C41.4881 34.44 41.3148 34.3867 41.1281 34.28C40.8081 34.0933 40.6215 33.8267 40.5681 33.48C40.4881 33.1067 40.5015 32.7333 40.6081 32.36C40.7148 31.9867 40.9015 31.48 41.1681 30.84C43.0348 26.8133 44.3415 23.8933 45.0881 22.08C44.6615 22.1067 44.3415 21.92 44.1281 21.52C43.9948 21.28 43.9681 21.0267 44.0481 20.76C44.1281 20.4667 44.2881 20.24 44.5281 20.08C45.6748 19.4667 46.5548 19.4 47.1681 19.88C47.6481 20.28 47.7681 20.8667 47.5281 21.64C47.3948 22.0933 46.8615 23.36 45.9281 25.44C47.6615 22.96 48.9281 21.36 49.7281 20.64C50.5281 19.8933 51.2348 19.64 51.8481 19.88C52.6215 20.1733 52.9148 21 52.7281 22.36C52.7281 22.4133 52.7148 22.4667 52.6881 22.52C52.0215 24.6267 51.6481 26.32 51.5681 27.6C52.1015 27.1733 52.8081 26.4133 53.6881 25.32C53.9815 24.9467 54.2081 24.6667 54.3681 24.48C54.5548 24.2667 54.8081 24.0133 55.1281 23.72C55.4481 23.4267 55.7281 23.24 55.9681 23.16C56.2081 23.0533 56.4881 23.0133 56.8081 23.04C57.1548 23.0667 57.4748 23.2 57.7681 23.44C58.2481 23.8133 58.5281 24.3467 58.6081 25.04C58.7148 25.7333 58.7015 26.3467 58.5681 26.88C58.4881 27.5467 58.4748 27.9733 58.5281 28.16C59.1148 28.2133 60.5415 27.6533 62.8081 26.48C64.7281 25.4933 66.1415 24.8667 67.0481 24.6C67.3148 24.52 67.5815 24.5467 67.8481 24.68ZM78.4066 24.64C78.6732 24.7467 78.8599 24.9467 78.9666 25.24C79.0732 25.5067 79.0599 25.7733 78.9266 26.04C78.8199 26.3067 78.6332 26.4933 78.3666 26.6C77.3799 26.9733 75.9666 27.9733 74.1266 29.6C73.4332 30.2133 72.8999 30.68 72.5266 31C72.1532 31.2933 71.6466 31.6533 71.0066 32.08C70.3932 32.48 69.7932 32.7733 69.2066 32.96C68.6466 33.1467 68.0599 33.24 67.4466 33.24C67.0199 33.24 66.5932 33.1867 66.1666 33.08C65.5266 32.92 65.0866 32.5333 64.8466 31.92C64.5799 31.2267 64.7266 30.1467 65.2866 28.68C65.8466 27.2133 66.4599 25.9467 67.1266 24.88C67.7932 23.7867 68.4999 22.6933 69.2466 21.6C69.4066 21.36 69.6332 21.2267 69.9266 21.2C70.2199 21.1467 70.4866 21.2 70.7266 21.36C70.9666 21.52 71.1132 21.7467 71.1666 22.04C71.2199 22.3333 71.1532 22.6 70.9666 22.84C69.7666 24.5467 68.7532 26.2133 67.9266 27.84C67.1266 29.4667 66.7532 30.5467 66.8066 31.08C67.2866 31.16 67.7666 31.1467 68.2466 31.04C68.7266 30.9333 69.2332 30.7067 69.7666 30.36C70.3266 29.9867 70.7799 29.6533 71.1266 29.36C71.4999 29.0667 72.0332 28.6133 72.7266 28C73.0466 27.7067 73.2999 27.4933 73.4866 27.36C73.6732 27.2 73.9266 26.9867 74.2466 26.72C74.5666 26.4533 74.8332 26.24 75.0466 26.08C75.2866 25.92 75.5532 25.7467 75.8466 25.56C76.1399 25.3467 76.4332 25.1733 76.7266 25.04C77.0199 24.88 77.2999 24.7467 77.5666 24.64C77.8599 24.5333 78.1399 24.5333 78.4066 24.64ZM71.6466 19.16C71.3799 19 71.2066 18.7867 71.1266 18.52C71.0732 18.2267 71.1266 17.9467 71.2866 17.68L72.2066 16.12C72.3666 15.8533 72.5799 15.6933 72.8466 15.64C73.1399 15.56 73.4066 15.6 73.6466 15.76C73.9132 15.8933 74.0732 16.1067 74.1266 16.4C74.2066 16.6667 74.1799 16.9333 74.0466 17.2L73.0866 18.8C72.8732 19.12 72.5666 19.28 72.1666 19.28C71.9799 19.28 71.8066 19.24 71.6466 19.16ZM95.8047 24.56C96.0714 24.5067 96.3247 24.56 96.5647 24.72C96.8047 24.88 96.9647 25.1067 97.0447 25.4C97.0447 25.48 97.0447 25.56 97.0447 25.64C97.0447 25.72 97.0314 25.8 97.0047 25.88C96.978 25.96 96.9514 26.04 96.9247 26.12C96.898 26.1733 96.858 26.2267 96.8047 26.28C96.7514 26.3333 96.6847 26.3867 96.6047 26.44C96.5514 26.4933 96.4847 26.5333 96.4047 26.56C96.3514 26.5867 96.2847 26.6133 96.2047 26.64C95.8047 26.72 95.0047 27.3067 93.8047 28.4C93.218 28.9333 92.738 29.36 92.3647 29.68C92.018 29.9733 91.5247 30.3333 90.8847 30.76C90.2447 31.16 89.618 31.4667 89.0047 31.68C87.9647 32.0533 87.098 32.0133 86.4047 31.56C86.058 31.3467 85.778 31.0267 85.5647 30.6C85.378 30.1467 85.258 29.76 85.2047 29.44C85.1514 29.0933 85.098 28.6133 85.0447 28C84.9647 26.9867 84.858 26.32 84.7247 26C84.618 25.7333 84.498 25.5867 84.3647 25.56C83.3514 25.4 80.858 27.6 76.8847 32.16C76.5114 32.6133 76.218 32.9467 76.0047 33.16C75.7914 33.3733 75.5247 33.6 75.2047 33.84C74.8847 34.0533 74.5914 34.16 74.3247 34.16C74.1114 34.16 73.898 34.0933 73.6847 33.96C73.018 33.5067 73.058 32.52 73.8047 31C73.8314 30.9733 73.8447 30.9467 73.8447 30.92C76.6447 26.0933 78.298 23.1467 78.8047 22.08C78.5647 22.0267 78.3514 21.9067 78.1647 21.72C78.0047 21.5067 77.9247 21.28 77.9247 21.04C77.9247 20.7467 78.0314 20.4933 78.2447 20.28C78.458 20.0667 78.7114 19.96 79.0047 19.96C79.8047 19.96 80.4047 20.2533 80.8047 20.84C81.1514 21.4 81.1514 22.0667 80.8047 22.84C80.538 23.4 79.698 24.9467 78.2847 27.48C81.058 24.5467 83.2047 23.2133 84.7247 23.48C85.6314 23.64 86.2847 24.2133 86.6847 25.2C86.898 25.7333 87.058 26.6 87.1647 27.8C87.2714 29.0267 87.4047 29.6933 87.5647 29.8C87.6714 29.8533 87.9247 29.8133 88.3247 29.68C89.338 29.3333 90.6847 28.3867 92.3647 26.84C92.898 26.36 93.298 26.0133 93.5647 25.8C93.8314 25.56 94.178 25.32 94.6047 25.08C95.0314 24.8133 95.4314 24.64 95.8047 24.56ZM122.58 30.24C122.26 31.0133 121.994 31.8267 121.78 32.68C121.567 33.5067 121.5 34.3867 121.58 35.32C121.66 36.2533 121.967 36.9467 122.5 37.4C122.74 37.5867 122.874 37.8267 122.9 38.12C122.927 38.4133 122.847 38.6667 122.66 38.88C122.447 39.1467 122.167 39.28 121.82 39.28C121.58 39.28 121.367 39.2 121.18 39.04C120.54 38.5333 120.074 37.88 119.78 37.08C119.514 36.3067 119.38 35.56 119.38 34.84C119.407 34.0933 119.5 33.3067 119.66 32.48C119.847 31.6533 120.02 31.0267 120.18 30.6C120.34 30.1733 120.5 29.7733 120.66 29.4C120.687 29.32 120.794 29.0933 120.98 28.72C122.634 25.28 124.02 22.1333 125.14 19.28C126.26 16.4 127.06 14.0933 127.54 12.36C128.02 10.6 128.327 9.04 128.46 7.68C128.62 6.29333 128.66 5.30667 128.58 4.72C128.527 4.10667 128.407 3.58666 128.22 3.16C128.14 3 128.074 2.92 128.02 2.92C127.887 2.92 127.714 2.96 127.5 3.04C127.314 3.12 126.927 3.4 126.34 3.88C125.754 4.36 125.087 5 124.34 5.8C123.62 6.6 122.634 7.82667 121.38 9.48C120.127 11.1333 118.754 13.08 117.26 15.32C114.274 19.8 111.594 24.1333 109.22 28.32C109.007 28.6667 108.7 28.84 108.3 28.84C107.9 28.84 107.594 28.6667 107.38 28.32C107.087 27.8133 106.914 27.1733 106.86 26.4C106.834 25.6267 106.9 24.8133 107.06 23.96C107.22 23.08 107.474 22.12 107.82 21.08C108.167 20.04 108.54 19.0267 108.94 18.04C109.34 17.0533 109.794 16.0267 110.3 14.96C110.834 13.8667 111.327 12.8933 111.78 12.04C112.234 11.1867 112.7 10.32 113.18 9.44C113.687 8.56 114.087 7.88 114.38 7.4C114.674 6.89333 114.954 6.42666 115.22 6C115.38 5.76 115.594 5.6 115.86 5.52C116.154 5.44 116.42 5.48 116.66 5.64C116.927 5.8 117.087 6.02667 117.14 6.32C117.22 6.58667 117.18 6.85333 117.02 7.12C115.26 9.97333 113.607 13.0267 112.06 16.28C110.514 19.5333 109.54 22.2 109.14 24.28C111.354 20.5733 113.474 17.2 115.5 14.16C117.394 11.3067 119.074 8.93333 120.54 7.04C122.034 5.14666 123.26 3.77333 124.22 2.92C125.18 2.06666 125.94 1.50666 126.5 1.24C127.087 0.946666 127.634 0.813332 128.14 0.839999C129.047 0.866665 129.714 1.36 130.14 2.32C130.514 3.14667 130.714 4.2 130.74 5.48C130.767 6.73333 130.62 8.12 130.3 9.64C130.007 11.1333 129.62 12.6933 129.14 14.32C128.66 15.9467 128.06 17.6667 127.34 19.48C126.62 21.2933 125.9 23.0133 125.18 24.64C124.487 26.24 123.727 27.9067 122.9 29.64C122.714 30.0133 122.607 30.2133 122.58 30.24ZM142.615 25.12C142.908 25.1467 143.135 25.28 143.295 25.52C143.482 25.76 143.548 26.0267 143.495 26.32C143.442 26.5867 143.295 26.8133 143.055 27C140.548 28.84 138.242 30.6533 136.135 32.44C134.908 33.5067 133.842 34.04 132.935 34.04C132.535 34.04 132.175 33.9333 131.855 33.72C131.002 33.2133 130.548 32.1067 130.495 30.4C129.295 31.4933 128.242 32.2267 127.335 32.6C126.402 33.0533 125.588 33.2933 124.895 33.32C124.202 33.3467 123.722 33.2667 123.455 33.08C123.162 32.8933 122.935 32.6667 122.775 32.4C122.215 31.52 122.322 30.3733 123.095 28.96C123.868 27.5467 125.162 26.12 126.975 24.68C129.348 22.7867 131.335 22.1333 132.935 22.72C133.548 22.9333 134.042 23.2933 134.415 23.8C134.788 24.3067 135.028 24.8 135.135 25.28C135.188 25.5733 135.135 25.84 134.975 26.08C134.815 26.32 134.588 26.48 134.295 26.56C134.028 26.6133 133.762 26.56 133.495 26.4C133.255 26.24 133.108 26.0133 133.055 25.72C132.922 25.1867 132.642 24.84 132.215 24.68C131.362 24.3867 130.055 24.9333 128.295 26.32C127.335 27.0933 126.548 27.8533 125.935 28.6C125.322 29.3467 124.935 29.9333 124.775 30.36C124.588 30.76 124.508 31.0533 124.535 31.24C124.908 31.32 125.535 31.1333 126.415 30.68C126.442 30.68 126.482 30.6667 126.535 30.64C127.842 30.0533 129.348 28.7733 131.055 26.8C131.428 26.4 131.855 26.32 132.335 26.56C132.815 26.8 133.002 27.1867 132.895 27.72C132.708 28.7067 132.615 29.6133 132.615 30.44C132.642 31.2667 132.748 31.76 132.935 31.92C133.308 31.8933 133.895 31.5467 134.695 30.88C134.722 30.88 134.748 30.8667 134.775 30.84C137.042 28.92 139.388 27.0667 141.815 25.28C142.055 25.12 142.322 25.0667 142.615 25.12ZM154.049 24.56C154.343 24.56 154.583 24.6667 154.769 24.88C154.983 25.0667 155.089 25.3067 155.089 25.6C155.089 25.8933 154.983 26.1467 154.769 26.36C154.583 26.5733 154.343 26.68 154.049 26.68C153.676 26.68 153.303 26.7333 152.929 26.84C152.556 26.92 152.223 27.0133 151.929 27.12C151.663 27.2267 151.249 27.4133 150.689 27.68C149.463 28.2667 148.396 28.72 147.489 29.04C147.569 29.3867 147.596 29.72 147.569 30.04C147.489 31 147.009 31.8267 146.129 32.52C143.916 34.2 141.636 35.04 139.289 35.04C138.703 35.04 138.169 34.9867 137.689 34.88C137.023 34.72 136.676 34.2933 136.649 33.6C136.623 32.7467 137.423 31.72 139.049 30.52C140.649 29.32 142.476 28.4 144.529 27.76C144.183 27.28 143.636 26.6533 142.889 25.88C142.329 25.2933 141.996 24.8933 141.889 24.68C141.409 23.72 141.409 22.76 141.889 21.8C142.663 20.28 144.449 19.2933 147.249 18.84C148.716 18.6 149.676 18.9067 150.129 19.76C150.796 20.9067 150.156 22.6133 148.209 24.88C148.023 25.0933 147.783 25.2133 147.489 25.24C147.196 25.2667 146.929 25.1867 146.689 25C146.476 24.8133 146.356 24.5733 146.329 24.28C146.329 23.9867 146.423 23.7333 146.609 23.52C147.516 22.4533 148.063 21.5733 148.249 20.88C148.063 20.88 147.836 20.8933 147.569 20.92C145.489 21.2667 144.223 21.88 143.769 22.76C143.609 23.08 143.609 23.4 143.769 23.72C143.796 23.7733 144.009 24 144.409 24.4C145.476 25.52 146.223 26.4133 146.649 27.08C147.556 26.7867 148.609 26.3467 149.809 25.76C150.423 25.4667 150.889 25.2533 151.209 25.12C151.556 24.9867 151.983 24.8667 152.489 24.76C152.996 24.6267 153.516 24.56 154.049 24.56ZM145.449 29.88C145.449 29.8267 145.449 29.76 145.449 29.68C143.049 30.4 141.049 31.48 139.449 32.92C141.263 32.8933 143.063 32.2 144.849 30.84C145.223 30.5467 145.423 30.2267 145.449 29.88ZM164.813 24.64C165.079 24.7467 165.266 24.9467 165.373 25.24C165.479 25.5067 165.466 25.7733 165.333 26.04C165.226 26.3067 165.039 26.4933 164.773 26.6C163.786 26.9733 162.373 27.9733 160.533 29.6C159.839 30.2133 159.306 30.68 158.933 31C158.559 31.2933 158.053 31.6533 157.413 32.08C156.799 32.48 156.199 32.7733 155.613 32.96C155.053 33.1467 154.466 33.24 153.853 33.24C153.426 33.24 152.999 33.1867 152.573 33.08C151.933 32.92 151.493 32.5333 151.253 31.92C150.986 31.2267 151.133 30.1467 151.693 28.68C152.253 27.2133 152.866 25.9467 153.533 24.88C154.199 23.7867 154.906 22.6933 155.653 21.6C155.813 21.36 156.039 21.2267 156.333 21.2C156.626 21.1467 156.893 21.2 157.133 21.36C157.373 21.52 157.519 21.7467 157.573 22.04C157.626 22.3333 157.559 22.6 157.373 22.84C156.173 24.5467 155.159 26.2133 154.333 27.84C153.533 29.4667 153.159 30.5467 153.213 31.08C153.693 31.16 154.173 31.1467 154.653 31.04C155.133 30.9333 155.639 30.7067 156.173 30.36C156.733 29.9867 157.186 29.6533 157.533 29.36C157.906 29.0667 158.439 28.6133 159.133 28C159.453 27.7067 159.706 27.4933 159.893 27.36C160.079 27.2 160.333 26.9867 160.653 26.72C160.973 26.4533 161.239 26.24 161.453 26.08C161.693 25.92 161.959 25.7467 162.253 25.56C162.546 25.3467 162.839 25.1733 163.133 25.04C163.426 24.88 163.706 24.7467 163.973 24.64C164.266 24.5333 164.546 24.5333 164.813 24.64ZM158.053 19.16C157.786 19 157.613 18.7867 157.533 18.52C157.479 18.2267 157.533 17.9467 157.693 17.68L158.613 16.12C158.773 15.8533 158.986 15.6933 159.253 15.64C159.546 15.56 159.813 15.6 160.053 15.76C160.319 15.8933 160.479 16.1067 160.533 16.4C160.613 16.6667 160.586 16.9333 160.453 17.2L159.493 18.8C159.279 19.12 158.973 19.28 158.573 19.28C158.386 19.28 158.213 19.24 158.053 19.16ZM187.731 24.68C187.998 24.8133 188.171 25.0267 188.251 25.32C188.331 25.5867 188.291 25.8533 188.131 26.12C187.998 26.36 187.798 26.5333 187.531 26.64C186.758 26.8533 185.478 27.4267 183.691 28.36C182.758 28.84 182.051 29.2 181.571 29.44C181.091 29.6533 180.518 29.8533 179.851 30.04C179.184 30.2267 178.624 30.2933 178.171 30.24C177.558 30.1867 177.091 29.96 176.771 29.56C176.344 29.0267 176.198 28.0533 176.331 26.64C176.411 25.9733 176.438 25.52 176.411 25.28C176.198 25.4667 175.798 25.92 175.211 26.64C174.011 28.16 172.984 29.1867 172.131 29.72C171.358 30.2533 170.678 30.2933 170.091 29.84C169.104 29.0933 169.144 26.84 170.211 23.08C169.011 24.52 167.051 27.32 164.331 31.48C163.638 32.5733 163.091 33.3467 162.691 33.8C162.318 34.2267 161.931 34.44 161.531 34.44C161.371 34.44 161.198 34.3867 161.011 34.28C160.691 34.0933 160.504 33.8267 160.451 33.48C160.371 33.1067 160.384 32.7333 160.491 32.36C160.598 31.9867 160.784 31.48 161.051 30.84C162.918 26.8133 164.224 23.8933 164.971 22.08C164.544 22.1067 164.224 21.92 164.011 21.52C163.878 21.28 163.851 21.0267 163.931 20.76C164.011 20.4667 164.171 20.24 164.411 20.08C165.558 19.4667 166.438 19.4 167.051 19.88C167.531 20.28 167.651 20.8667 167.411 21.64C167.278 22.0933 166.744 23.36 165.811 25.44C167.544 22.96 168.811 21.36 169.611 20.64C170.411 19.8933 171.118 19.64 171.731 19.88C172.504 20.1733 172.798 21 172.611 22.36C172.611 22.4133 172.598 22.4667 172.571 22.52C171.904 24.6267 171.531 26.32 171.451 27.6C171.984 27.1733 172.691 26.4133 173.571 25.32C173.864 24.9467 174.091 24.6667 174.251 24.48C174.438 24.2667 174.691 24.0133 175.011 23.72C175.331 23.4267 175.611 23.24 175.851 23.16C176.091 23.0533 176.371 23.0133 176.691 23.04C177.038 23.0667 177.358 23.2 177.651 23.44C178.131 23.8133 178.411 24.3467 178.491 25.04C178.598 25.7333 178.584 26.3467 178.451 26.88C178.371 27.5467 178.358 27.9733 178.411 28.16C178.998 28.2133 180.424 27.6533 182.691 26.48C184.611 25.4933 186.024 24.8667 186.931 24.6C187.198 24.52 187.464 24.5467 187.731 24.68ZM201.889 24.56C202.183 24.5333 202.436 24.6133 202.649 24.8C202.889 24.96 203.023 25.1867 203.049 25.48C203.103 25.7733 203.036 26.04 202.849 26.28C202.689 26.4933 202.463 26.6133 202.169 26.64C201.236 26.7733 199.663 27.44 197.449 28.64C195.209 29.8667 193.596 30.5333 192.609 30.64C192.263 30.6933 191.943 30.7067 191.649 30.68C191.409 30.8933 191.169 31.1067 190.929 31.32C190.583 31.64 190.089 31.96 189.449 32.28C188.809 32.5733 188.169 32.72 187.529 32.72C187.236 32.72 186.956 32.68 186.689 32.6C185.729 32.3333 185.089 31.6267 184.769 30.48C184.236 28.6667 184.876 26.7733 186.689 24.8C186.689 24.56 186.716 24.32 186.769 24.08C187.036 22.8267 187.543 21.76 188.289 20.88C189.036 19.9733 189.876 19.44 190.809 19.28C192.356 19.04 193.623 19.8 194.609 21.56C195.676 23.5067 195.409 25.6933 193.809 28.12C194.369 27.88 195.249 27.4267 196.449 26.76C198.903 25.4267 200.716 24.6933 201.889 24.56ZM187.289 30.56C187.769 30.72 188.423 30.52 189.249 29.96C188.796 29.6933 188.396 29.3733 188.049 29C187.676 28.6 187.383 28.16 187.169 27.68C186.716 28.5067 186.583 29.2533 186.769 29.92C186.903 30.2933 187.076 30.5067 187.289 30.56ZM190.889 28.4C192.996 26.0533 193.609 24.12 192.729 22.6C192.223 21.6933 191.689 21.28 191.129 21.36C190.649 21.44 190.183 21.7867 189.729 22.4C190.183 22.3467 190.529 22.5067 190.769 22.88C190.903 23.12 190.943 23.3867 190.889 23.68C190.836 23.9733 190.689 24.2 190.449 24.36C189.889 24.7067 189.329 25.1467 188.769 25.68C188.849 26.4 189.129 27.0267 189.609 27.56C189.956 27.9333 190.383 28.2133 190.889 28.4ZM217.168 24.56C217.462 24.5067 217.728 24.5733 217.968 24.76C218.208 24.92 218.342 25.1467 218.368 25.44C218.422 25.7067 218.368 25.96 218.208 26.2C218.048 26.44 217.822 26.5867 217.528 26.64C216.862 26.7733 215.755 27.1467 214.208 27.76C212.368 28.5067 211.115 28.84 210.448 28.76C209.995 28.7067 209.582 28.6 209.208 28.44C206.622 31.2933 204.395 33.12 202.528 33.92C202.102 34.1067 201.715 34.2 201.368 34.2C200.835 34.2 200.408 34.0267 200.088 33.68C198.888 32.3733 199.968 28.5333 203.328 22.16C203.488 21.8933 203.702 21.72 203.968 21.64C204.262 21.56 204.528 21.5867 204.768 21.72C205.035 21.8533 205.208 22.0667 205.288 22.36C205.368 22.6267 205.342 22.88 205.208 23.12C204.595 24.32 204.022 25.52 203.488 26.72C202.955 27.92 202.528 28.9867 202.208 29.92C201.888 30.8533 201.715 31.5467 201.688 32C203.288 31.3067 205.302 29.6133 207.728 26.92C207.675 26.7867 207.635 26.64 207.608 26.48C207.502 25.9467 207.555 25.3733 207.768 24.76C207.982 24.1467 208.328 23.5733 208.808 23.04C209.288 22.5067 209.848 22.0667 210.488 21.72C211.688 21.0533 212.555 21.0133 213.088 21.6C213.622 22.1333 213.582 22.88 212.968 23.84C212.942 23.8667 212.928 23.88 212.928 23.88C212.288 24.76 211.568 25.68 210.768 26.64C211.115 26.64 211.995 26.36 213.408 25.8C215.088 25.1333 216.342 24.72 217.168 24.56Z" fill="white"/>
</svg>
